<svg xmlns="http://www.w3.org/2000/svg" width="300" height="150" viewBox="0 0 300 150" fill="none"><path d="M200.872 81.439V99.0779H198.545V85.9251L192.661 99.0779H191.025L185.117 85.9001V99.0779H182.79V81.439H185.298L191.845 96.0195L198.391 81.439H200.872Z" fill="#00827F"></path><path d="M217.237 85.1113V99.0808H214.91V97.0169C214.467 97.7308 213.848 98.2891 213.057 98.6863C212.262 99.0863 211.39 99.2863 210.434 99.2863C209.342 99.2863 208.363 99.0613 207.494 98.6113C206.624 98.1613 205.939 97.4863 205.434 96.5836C204.932 95.6836 204.682 94.5863 204.682 93.2947V85.1141H206.984V92.9891C206.984 94.3669 207.332 95.4252 208.032 96.1641C208.731 96.903 209.684 97.2724 210.897 97.2724C212.109 97.2724 213.121 96.8891 213.84 96.1252C214.556 95.3613 214.913 94.2474 214.913 92.7863V85.1141H217.24L217.237 85.1113Z" fill="#00827F"></path><path d="M232.148 86.4001C233.207 87.4279 233.734 88.9112 233.734 90.8473V99.0807H231.432V91.1779C231.432 89.7862 231.083 88.7168 230.384 87.9779C229.684 87.239 228.728 86.8696 227.519 86.8696C226.309 86.8696 225.317 87.2529 224.592 88.0168C223.868 88.7807 223.505 89.8946 223.505 91.3557V99.0779H221.178V85.1084H223.505V87.0946C223.965 86.3807 224.592 85.8279 225.384 85.439C226.178 85.0473 227.051 84.8529 228.006 84.8529C229.712 84.8529 231.092 85.3668 232.148 86.3945V86.4001ZM224.539 81.6195C224.991 81.1612 225.557 80.9307 226.239 80.9307C226.563 80.9307 226.841 80.9862 227.07 81.0973C227.299 81.2084 227.577 81.364 227.901 81.5668C228.14 81.739 228.352 81.8696 228.539 81.9612C228.726 82.0557 228.932 82.1029 229.152 82.1029C229.442 82.1029 229.69 82.0084 229.893 81.8223C230.097 81.6362 230.225 81.3612 230.278 81.0057H231.607C231.504 81.8557 231.223 82.5084 230.763 82.9696C230.3 83.4279 229.729 83.6584 229.049 83.6584C228.723 83.6584 228.438 83.6029 228.19 83.4918C227.942 83.3807 227.666 83.2168 227.36 82.9946C227.087 82.8251 226.869 82.6973 226.708 82.6112C226.546 82.5251 226.354 82.4834 226.131 82.4834C225.841 82.4834 225.598 82.5779 225.401 82.764C225.205 82.9501 225.083 83.2334 225.03 83.6057H223.675C223.795 82.739 224.08 82.0779 224.531 81.6168L224.539 81.6195Z" fill="#00827F"></path><path d="M240.091 98.4169C239.027 97.8224 238.19 96.978 237.583 95.8808C236.978 94.7836 236.674 93.5141 236.674 92.0697C236.674 90.6252 236.986 89.3808 237.608 88.2836C238.229 87.1891 239.077 86.3474 240.153 85.7613C241.226 85.1752 242.43 84.8835 243.759 84.8835C245.088 84.8835 246.29 85.1752 247.365 85.7613C248.438 86.3474 249.288 87.1863 249.91 88.2724C250.531 89.3585 250.844 90.6252 250.844 92.0697C250.844 93.5141 250.526 94.7836 249.885 95.8808C249.244 96.9752 248.38 97.8224 247.287 98.4169C246.195 99.0141 244.985 99.3113 243.656 99.3113C242.326 99.3113 241.153 99.0141 240.088 98.4169H240.091ZM246.011 96.6835C246.744 96.2919 247.338 95.7058 247.786 94.9252C248.238 94.1447 248.466 93.1919 248.466 92.0697C248.466 90.9474 248.243 89.9947 247.8 89.2141C247.357 88.4308 246.777 87.8502 246.061 87.4697C245.345 87.0863 244.567 86.8947 243.734 86.8947C242.901 86.8947 242.101 87.0863 241.393 87.4697C240.685 87.853 240.119 88.4336 239.693 89.2141C239.266 89.9947 239.054 90.9474 239.054 92.0697C239.054 93.1919 239.263 94.1697 239.682 94.9502C240.1 95.7308 240.657 96.3141 241.357 96.6947C242.056 97.0752 242.823 97.2669 243.659 97.2669C244.495 97.2669 245.278 97.0724 246.011 96.6808V96.6835Z" fill="#00827F"></path><path d="M255.654 97.1696H262.532V99.0807H252.995V97.1696L259.798 87.0001H253.045V85.114H262.482V87.0001L255.654 97.1696Z" fill="#00827F"></path><path d="M117.854 65.9222C116.996 65.7305 116.043 65.5416 115.279 65.7305C110.511 66.5861 105.837 67.4416 101.163 68.2972C100.399 68.4888 99.6356 68.4888 98.7772 68.4888C99.8251 66.0166 100.876 63.925 101.734 61.7388C102.975 58.5083 105.932 51.9472 106.506 48.6194C107.269 43.2027 104.407 39.6833 99.1618 39.7777C97.5398 39.8722 95.823 40.0638 94.2009 40.6333C90.2879 41.775 86.4752 43.1055 82.6598 44.3416C79.3209 45.4805 76.0768 46.8111 72.9302 47.9527C72.3589 48.0472 71.8823 48.3333 71.5005 48.6166C70.8316 48.9027 70.1655 49.3777 70.7368 50.1388C70.8316 50.3305 71.6928 50.425 72.1694 50.5194C72.4564 50.5194 72.7407 50.3305 73.0278 50.2361C77.0328 48.8083 81.0405 47.3833 85.0483 46.0527C88.9585 44.9111 92.7739 43.675 96.6842 42.6305C97.8296 42.4388 99.3569 42.4388 100.594 42.6305C102.501 43.0111 103.646 44.0583 103.646 45.9583C103.646 47.8583 103.646 49.6666 102.98 51.3777C101.456 55.6555 97.8296 63.3555 96.1128 67.5388C95.4439 68.9638 94.396 69.4388 93.061 69.6305C90.3882 70.1055 87.6235 70.3916 85.1458 70.9611C72.7435 73.0527 60.4415 75.05 48.2343 77.3305C42.1307 78.375 36.1191 79.8972 30.3025 81.9888C28.6805 82.5611 27.1559 83.3194 25.9157 84.175C23.4353 85.8861 22.8639 88.1666 24.1041 90.8305C25.0573 92.8277 26.3923 94.4416 28.0144 95.775C33.7361 100.719 40.1296 104.142 46.9941 106.803C52.0498 108.703 57.3897 109.656 62.7297 108.8C68.1672 107.944 73.1253 106.044 76.9408 102.147C79.1342 99.9611 81.1381 97.6777 82.9496 95.2055C87.9106 88.6472 91.9155 81.6111 95.731 74.4833C96.5894 72.8666 97.5426 72.0111 99.3569 71.6305C104.889 70.6805 110.516 69.7277 116.048 68.5888C116.715 68.4944 117.481 68.3027 117.955 67.9222C119.003 67.4472 118.813 66.3055 117.86 65.925L117.854 65.9222ZM92.4841 74.6694C88.8609 81.5138 84.8532 88.0722 80.3716 94.2527C77.8912 97.4861 75.3159 100.433 71.9771 102.619C65.4916 106.422 58.6244 107.278 51.4701 105.186C43.5549 103 36.4953 99.1027 30.1994 93.9694C28.9592 93.0194 28.006 91.8777 27.1476 90.6416C25.7178 88.55 26.0997 86.9333 28.4826 85.9833C30.676 84.9389 33.0617 84.1777 35.3498 83.4166C42.1223 81.4194 49.2767 80.0889 56.2387 78.8555C67.4927 76.8583 78.7496 75.0527 90.0984 73.2472C90.9568 73.0555 91.91 72.9611 93.2449 72.8666C92.8631 73.7222 92.7684 74.1972 92.4813 74.675L92.4841 74.6694Z" fill="#161515"></path><path d="M211.953 69.8193C211.572 69.1554 211.095 69.0582 210.331 69.1554C209.757 69.3471 209.186 69.536 208.615 69.8193C205.945 72.2915 194.022 74.7637 191.541 72.2915C191.354 72.1054 191.21 71.9082 191.115 71.7165C191.416 71.4276 191.636 70.9804 191.497 70.5693C191.753 70.4582 192.11 70.3915 192.589 70.3915C193.829 70.3915 195.164 70.2971 196.31 70.0109C197.837 69.5359 199.267 68.9665 200.507 68.2054C201.365 67.7304 201.747 66.8748 201.555 65.9248C201.363 64.9748 200.602 64.4054 199.649 64.3082C197.36 64.3082 194.785 64.6887 192.494 65.7332C190.532 66.7998 189.989 67.4526 189.225 69.5498C188.96 69.6026 188.676 69.7082 188.392 69.8221C180.477 72.6748 182.001 71.9137 174.181 74.6721L171.798 75.4332C173.515 72.1054 175.134 68.3998 176.759 64.6915C177.141 63.8359 177.235 63.0748 176.566 62.5054C176.185 61.8387 175.421 62.1248 174.66 62.3137C174.086 62.5054 173.612 62.5054 173.038 62.5998C172.274 62.5998 171.416 62.5998 170.655 62.7887C167.793 63.5498 165.218 64.7859 162.929 66.8776C161.882 67.6387 161.023 68.6859 160.354 69.7304C160.307 69.7915 160.268 69.8554 160.229 69.9193C160.207 69.9193 160.187 69.9193 160.165 69.9193C159.499 69.9193 158.732 70.0137 158.161 70.0137C156.634 70.1082 156.157 69.8221 155.873 68.3971C155.68 67.5415 155.586 66.5915 155.301 65.6415C154.727 63.8332 153.487 63.0748 151.581 63.5498C150.722 63.6443 149.769 64.0248 149.005 64.6887C147.86 65.4498 146.812 66.4971 145.572 67.4471C145.379 67.6387 145 67.9221 144.619 68.2082C145.285 66.4026 146.051 64.786 146.907 63.1693C147.099 62.6943 147.289 62.1248 147.289 61.5526C147.383 61.1721 147.096 60.6971 146.812 60.5082C146.525 60.3165 145.954 60.5082 145.764 60.6971C145.287 61.1721 144.811 61.8387 144.524 62.4082C143.378 64.4637 142.255 66.5415 141.132 68.6193C140.912 68.5887 140.689 68.5887 140.327 68.5887C139.181 68.7776 137.464 68.9693 136.416 69.1582C135.081 69.4443 133.649 69.5387 132.124 69.8221C132.506 68.9665 132.79 68.3971 133.077 67.8248C133.27 66.6859 133.841 65.5443 133.841 64.5943C133.936 62.5026 132.696 61.5526 130.597 61.7415C129.073 61.836 128.022 62.5026 126.974 63.2637C124.493 65.2609 122.11 67.2554 120.488 69.8221C115.815 77.2387 119.346 79.5193 122.777 78.4748C125.162 77.7137 126.497 76.0026 129.167 73.5304C129.644 72.9582 130.215 72.6748 130.884 72.5804C133.172 72.1054 135.558 71.8193 137.941 71.3443C138.587 71.2943 139.181 71.2165 139.778 71.1165C139.011 72.5276 138.242 73.9387 137.464 75.3359C137.272 75.8109 136.893 76.1915 136.893 76.7637C136.893 78.9498 139.563 78.0943 140.421 76.1915C141.567 74.0054 143.378 71.8193 145.572 70.0109C147.004 68.6804 151.296 64.1165 152.916 67.7304C153.487 69.9165 153.869 72.6748 156.921 72.8637C158.325 72.9332 159.446 72.7776 160.296 72.5082C161.034 73.1832 161.932 73.5026 162.832 73.0526C164.264 72.6721 165.407 72.2915 166.837 71.5332C168.364 70.7721 171.224 68.4915 172.848 67.7304C172.656 67.7304 172.372 70.7721 170.273 73.9109C169.128 76.1915 166.84 77.9026 164.359 78.6665C157.874 81.4221 151.196 84.1804 145.092 88.1721C142.994 89.7887 140.706 91.3082 138.509 93.1165C137.461 94.0665 136.411 95.3971 135.745 96.7304C134.504 98.8221 135.552 100.914 137.938 101.389C138.986 101.675 140.131 101.769 141.372 101.675C146.14 101.294 150.243 99.2971 154.248 96.8276C160.449 92.9304 165.025 87.3221 168.841 81.1415C169.51 79.9998 170.463 78.5748 171.514 78.0998C174.66 77.0554 177.617 75.9137 180.574 74.9637C186.488 72.8721 182.862 74.8693 188.776 72.8721C188.871 72.8582 188.969 72.8359 189.069 72.8082C190 75.2943 193.748 75.4915 196.407 75.3443C201.463 75.0582 206.708 73.8221 211.382 71.4471C211.953 71.1609 212.24 70.4971 211.953 69.8304V69.8193ZM122.963 70.2971C123.345 72.1026 124.68 72.6748 126.684 72.6748C124.206 78.0915 118.577 75.5276 122.963 70.2971ZM131.071 65.5443C130.689 66.686 130.118 68.0137 129.354 69.0609C128.877 70.1054 127.161 70.2026 126.397 69.4415C125.728 68.9665 125.823 68.3971 126.11 67.9193C127.158 66.1137 128.685 64.7832 131.071 64.0221C131.071 64.7832 131.263 65.3526 131.071 65.5443ZM164.167 69.4415C165.884 67.0637 170.368 65.1637 172.848 65.1637C169.32 68.6804 162.453 72.6748 164.167 69.4415ZM143.183 99.4804C135.839 101.192 137.459 97.1054 142.135 93.7776C147.57 89.3082 159.685 81.8943 166.647 79.9915C162.261 88.0721 152.341 96.9137 143.183 99.4804ZM198.983 67.0637C197.455 68.4915 193.737 69.3443 191.828 69.1554C194.975 67.0637 200.699 64.8776 198.983 67.0637Z" fill="#161515"></path><path d="M276.534 108.614C223.795 110.747 170.973 110.764 118.233 108.614C170.973 106.464 223.795 106.48 276.534 108.614Z" fill="#00827F"></path></svg>