<svg xmlns="http://www.w3.org/2000/svg" width="296" height="217" viewBox="0 0 296 217" fill="none"><path d="M293.37 81.7917C290.7 81.2017 287.74 80.6117 285.37 81.2017C270.56 83.8717 256.03 86.5417 241.52 89.2017C239.15 89.7917 236.78 89.7917 234.11 89.7917C237.37 82.0817 240.63 75.5717 243.29 68.7517C247.14 58.6817 256.33 38.2317 258.11 27.8617C260.48 10.9717 251.59 0.0117324 235.29 0.311732C230.25 0.611732 224.92 1.20173 219.88 2.98173C207.73 6.54173 195.88 10.6917 184.03 14.5417C173.66 18.0917 163.58 22.2417 153.8 25.8017C152.02 26.1017 150.54 26.9917 149.36 27.8717C147.28 28.7617 145.21 30.2417 146.99 32.6117C147.29 33.2017 149.96 33.5017 151.44 33.7917C152.33 33.7917 153.22 33.2017 154.11 32.9017C166.55 28.4517 179 24.0117 191.45 19.8617C203.6 16.3017 215.45 12.4517 227.6 9.19174C231.16 8.60174 235.9 8.60174 239.75 9.19174C245.68 10.3817 249.23 13.6417 249.23 19.5617C249.23 25.4817 249.23 31.1117 247.16 36.4517C242.42 49.7817 231.16 73.7817 225.83 86.8217C223.75 91.2617 220.49 92.7517 216.35 93.3417C208.05 94.8217 199.46 95.7117 191.76 97.4917C153.24 104.012 115.02 110.232 77.09 117.342C58.13 120.602 39.46 125.342 21.38 131.862C16.34 133.642 11.6 136.012 7.75002 138.682C0.0400162 144.022 -1.72998 151.122 2.12002 159.422C5.08002 165.642 9.23001 170.682 14.27 174.832C32.05 190.242 51.9 200.912 73.23 209.202C88.93 215.132 105.53 218.092 122.12 215.422C139.01 212.752 154.42 206.832 166.27 194.682C173.09 187.862 179.31 180.752 184.94 173.052C200.35 152.612 212.8 130.682 224.65 108.462C227.32 103.422 230.28 100.752 235.91 99.5717C253.09 96.6117 270.58 93.6417 287.76 90.0917C289.83 89.7917 292.21 89.2017 293.69 88.0117C296.95 86.5317 296.36 82.9717 293.39 81.7917H293.37ZM214.55 109.062C203.29 130.392 190.85 150.832 176.92 170.092C169.21 180.172 161.22 189.352 150.84 196.172C130.69 208.022 109.36 210.692 87.14 204.172C62.55 197.352 40.62 185.212 21.07 169.212C17.22 166.252 14.25 162.692 11.59 158.842C7.15001 152.322 8.33001 147.292 15.74 144.322C22.56 141.072 29.96 138.692 37.07 136.322C58.11 130.102 80.33 125.952 101.96 122.102C136.92 115.872 171.89 110.242 207.15 104.622C209.82 104.032 212.78 103.732 216.93 103.432C215.74 106.102 215.45 107.582 214.56 109.062H214.55Z" fill="#00827F"></path></svg>